<svg width="785" height="216" viewBox="0 0 785 216" fill="none" xmlns="http://www.w3.org/2000/svg">
<g clip-path="url(#clip0)">
<path d="M65.3696 1.11914H109.7C123.984 1.11914 131.021 10.1425 131.021 20.5647C131.021 33.0155 120.747 40.6399 109.7 40.6399H79.7242V58.057H65.3696V1.11914ZM79.6539 13.9197V28.5388H107.589C114.626 28.5388 116.174 24.5518 116.174 20.9145C116.174 17.9067 114.626 13.9197 107.589 13.9197H79.6539Z" fill="#FF2E23"/>
<path d="M182.528 46.5854H146.783L141.505 58.1268H126.236L154.241 1.18903H176.125L203.427 58.1268H187.876L182.528 46.5854ZM152.201 34.974H177.251L166.978 12.7305H162.474L152.201 34.974Z" fill="#FF2E23"/>
<path d="M209.338 1.11914H253.598C267.882 1.11914 274.919 10.1425 274.919 20.5647C274.919 28.6787 270.556 34.7642 264.434 37.9818L274.708 58.057H258.594L250.643 40.6399H223.622V58.057H209.268V1.11914H209.338ZM223.622 13.9197V28.5388H251.487C258.524 28.5388 260.072 24.5518 260.072 20.9145C260.072 17.9067 258.524 13.9197 251.487 13.9197H223.622Z" fill="#FF2E23"/>
<path d="M279.211 18.5363C279.211 6.50518 292.44 0 310.665 0C322.909 0 335.152 1.81865 339.656 4.40674L336.911 16.5078C332.126 13.6399 319.953 12.171 310.102 12.171C297.999 12.171 293.355 13.8497 293.355 16.8575C293.355 27.3497 341.344 17.2772 341.344 40.0803C341.344 50.2928 331.141 59.2461 309.469 59.2461C299.336 59.2461 286.248 58.4068 280.337 55.6088L280.9 42.5985C286.811 45.4663 297.647 47.0751 309.891 47.0751C322.346 47.0751 327.06 44.8368 327.06 42.2487C327.13 32.456 279.211 42.1088 279.211 18.5363Z" fill="#FF2E23"/>
<path d="M385.534 0C408.121 0 424.094 10.1425 424.094 29.3083C424.094 49.3135 406.995 59.2461 385.463 59.2461C363.861 59.2461 346.692 49.1736 346.692 29.3782C346.692 10.772 362.454 0 385.534 0ZM385.322 47.285C399.466 47.285 409.317 41.6192 409.317 29.0285C409.317 17.6269 399.466 11.9611 385.393 11.9611C371.39 11.9611 361.468 17.4871 361.468 29.4482C361.468 41.4793 371.32 47.285 385.322 47.285Z" fill="#FF2E23"/>
<path d="M450.552 18.1865H446.963V58.1269H432.608V1.11914H452.733L490.66 37.0725H494.249V1.11914H508.603V58.057H491.293L450.552 18.1865Z" fill="#FF2E23"/>
<path d="M517.399 18.5363C517.399 6.50518 530.628 0 548.852 0C561.096 0 573.34 1.81865 577.843 4.40674L575.099 16.5078C570.314 13.6399 558.141 12.171 548.289 12.171C536.187 12.171 531.542 13.8497 531.542 16.8575C531.542 27.3497 579.532 17.2772 579.532 40.0803C579.532 50.2928 569.329 59.2461 547.656 59.2461C537.524 59.2461 524.436 58.4068 518.525 55.6088L519.088 42.5985C524.998 45.4663 535.835 47.0751 548.078 47.0751C560.533 47.0751 565.248 44.8368 565.248 42.2487C565.318 32.456 517.399 42.1088 517.399 18.5363Z" fill="#FF2E23"/>
<path d="M391.726 214.951V204.039C401.929 196.345 412.977 187.042 412.977 180.326C412.977 176.969 410.021 174.661 405.025 174.661C401.366 174.661 396.229 175.78 391.937 177.738L389.826 168.435C394.47 165.847 399.959 164.168 406.151 164.168C417.48 164.168 425.783 168.365 425.783 177.878C425.783 188.161 415.439 196.485 405.729 203.829V204.039H426.909V214.951H391.726V214.951Z" fill="#FF2E23"/>
<path d="M453.296 164.238C467.721 164.238 473.913 175.15 473.913 190.119C473.913 205.088 467.721 216 453.296 216C438.871 216 432.679 205.088 432.679 190.119C432.679 175.15 438.871 164.238 453.296 164.238ZM453.366 205.158C459.911 205.158 461.459 197.464 461.459 189.63C461.459 183.404 460.614 175.08 453.507 175.08C446.611 175.08 445.204 182.775 445.204 190.049C445.204 197.464 446.682 205.158 453.366 205.158Z" fill="#FF2E23"/>
<path d="M480.809 214.951V204.039C491.012 196.345 502.06 187.042 502.06 180.326C502.06 176.969 499.104 174.661 494.108 174.661C490.449 174.661 485.313 175.78 481.02 177.738L478.909 168.435C483.554 165.847 489.042 164.168 495.234 164.168C506.563 164.168 514.866 168.365 514.866 177.878C514.866 188.161 504.523 196.485 494.812 203.829V204.039H515.992V214.951H480.809V214.951Z" fill="#FF2E23"/>
<path d="M522.325 214.951V204.039H533.372V177.948L522.325 179.487V168.295L543.857 164.168H545.897V204.039H556.311V214.951H522.325V214.951Z" fill="#FF2E23"/>
<path d="M30.0462 124.088V103.943H48.2709V77.0829H0V196.415H30.0462V150.948H48.2709V124.088H30.0462Z" fill="black"/>
<path d="M89.8568 77.0829H65.1584V103.943H89.8568V77.0829Z" fill="black"/>
<path d="M79.3723 124.088H65.1584V150.948H79.3723V124.088Z" fill="black"/>
<path d="M187.032 77.0829H101.608V103.943H187.032V77.0829Z" fill="black"/>
<path d="M101.608 196.415H186.962V169.554H131.584V149.409H176.477V124.158H101.608V196.415Z" fill="black"/>
<path d="M244.591 100.166C256.131 100.166 271.189 103.313 281.181 109.259L286.881 83.8678C277.452 78.4818 260.775 74.6346 245.576 74.6346C222.989 74.6346 204.764 84.7771 200.261 103.873H231.714C234.529 101.495 239.032 100.166 244.591 100.166Z" fill="black"/>
<path d="M251.417 124.158H200.894C210.464 153.956 260.705 146.961 260.705 163.119C260.705 168.645 257.398 173.262 244.169 173.262C229.041 173.262 215.319 169.834 202.865 163.889L201.668 191.168C214.123 196.974 229.604 198.793 243.254 198.793C275.201 198.793 290.54 179.977 290.54 158.643C290.54 134.93 269.008 129.054 251.417 124.158Z" fill="black"/>
<path d="M295.958 77.0829V103.943H333.463V196.415H363.439V103.943H373.361V77.0829H295.958Z" fill="black"/>
<path d="M400.944 77.0829H390.248V103.943H400.944V77.0829Z" fill="black"/>
<path d="M443.797 77.0829H413.75V149.409H443.797V77.0829Z" fill="black"/>
<path d="M443.797 173.821H413.75V196.414H443.797V173.821Z" fill="black"/>
<path d="M487.916 77.0829H454.844L482.216 149.339H512.051L487.916 77.0829Z" fill="black"/>
<path d="M491.504 173.821L500.019 196.414H530.98L540.057 173.821H491.504Z" fill="black"/>
<path d="M579.11 77.0829H547.938L520.707 149.339H549.979L579.11 77.0829Z" fill="black"/>
<path d="M649.194 91.7721L643.635 77.0829H612.745L564.544 196.415H596.49L604.723 173.611H648.772L649.194 91.7721ZM613.519 149.269L628.084 109.469L640.961 149.269H613.519Z" fill="black"/>
<path d="M666.082 136.399V196.414H688.81L666.082 136.399Z" fill="black"/>
<path d="M731.17 168.086V77.0829H701.124V196.415H785V168.086H731.17Z" fill="black"/>
</g>
<defs>
<clipPath id="clip0">
<rect width="785" height="216" fill="white"/>
</clipPath>
</defs>
</svg>
