<svg width="785" height="142" viewBox="0 0 785 142" fill="none" xmlns="http://www.w3.org/2000/svg">
<path d="M391.726 140.951V130.039C401.929 122.345 412.977 113.042 412.977 106.326C412.977 102.969 410.021 100.661 405.025 100.661C401.366 100.661 396.229 101.78 391.937 103.738L389.826 94.4353C394.47 91.8472 399.959 90.1685 406.151 90.1685C417.48 90.1685 425.783 94.3654 425.783 103.878C425.783 114.161 415.439 122.485 405.729 129.829V130.039H426.909V140.951H391.726V140.951Z" fill="#FF2E23"/>
<path d="M453.296 90.2384C467.721 90.2384 473.913 101.15 473.913 116.119C473.913 131.088 467.721 142 453.296 142C438.871 142 432.679 131.088 432.679 116.119C432.679 101.15 438.871 90.2384 453.296 90.2384ZM453.367 131.158C459.911 131.158 461.459 123.464 461.459 115.63C461.459 109.404 460.614 101.08 453.507 101.08C446.611 101.08 445.204 108.775 445.204 116.049C445.204 123.464 446.682 131.158 453.367 131.158Z" fill="#FF2E23"/>
<path d="M480.809 140.951V130.039C491.012 122.345 502.06 113.042 502.06 106.326C502.06 102.969 499.104 100.661 494.108 100.661C490.449 100.661 485.313 101.78 481.02 103.738L478.909 94.4353C483.554 91.8472 489.042 90.1685 495.234 90.1685C506.563 90.1685 514.866 94.3654 514.866 103.878C514.866 114.161 504.523 122.485 494.812 129.829V130.039H515.992V140.951H480.809V140.951Z" fill="#FF2E23"/>
<path d="M522.325 140.951V130.039H533.372V103.948L522.325 105.487V94.2954L543.857 90.1685H545.897V130.039H556.311V140.951H522.325V140.951Z" fill="#FF2E23"/>
<path d="M30.0462 50.0881V29.943H48.2709V3.08295H0V122.415H30.0462V76.9482H48.2709V50.0881H30.0462Z" fill="black"/>
<path d="M89.8569 3.08295H65.1585V29.9431H89.8569V3.08295Z" fill="black"/>
<path d="M79.3724 50.0881H65.1585V76.9482H79.3724V50.0881Z" fill="black"/>
<path d="M187.032 3.08295H101.608V29.9431H187.032V3.08295Z" fill="black"/>
<path d="M101.608 122.415H186.962V95.5545H131.584V75.4094H176.477V50.1581H101.608V122.415Z" fill="black"/>
<path d="M244.591 26.1657C256.131 26.1657 271.189 29.3134 281.181 35.259L286.881 9.86781C277.452 4.4818 260.775 0.634644 245.576 0.634644C222.989 0.634644 204.764 10.7771 200.261 29.873H231.714C234.529 27.4948 239.032 26.1657 244.591 26.1657Z" fill="black"/>
<path d="M251.417 50.1581H200.894C210.464 79.956 260.705 72.9612 260.705 89.1192C260.705 94.6451 257.398 99.2617 244.169 99.2617C229.041 99.2617 215.319 95.8342 202.864 89.8887L201.668 117.168C214.123 122.974 229.603 124.793 243.254 124.793C275.2 124.793 290.54 105.977 290.54 84.6425C290.54 60.9301 269.008 55.0545 251.417 50.1581Z" fill="black"/>
<path d="M295.958 3.08295V29.943H333.463V122.415H363.439V29.943H373.361V3.08295H295.958Z" fill="black"/>
<path d="M400.944 3.08295H390.248V29.9431H400.944V3.08295Z" fill="black"/>
<path d="M443.797 3.08295H413.75V75.4094H443.797V3.08295Z" fill="black"/>
<path d="M443.797 99.8212H413.75V122.414H443.797V99.8212Z" fill="black"/>
<path d="M487.916 3.08295H454.844L482.216 75.3394H512.051L487.916 3.08295Z" fill="black"/>
<path d="M491.505 99.8212L500.019 122.414H530.98L540.057 99.8212H491.505Z" fill="black"/>
<path d="M579.11 3.08295H547.938L520.707 75.3394H549.979L579.11 3.08295Z" fill="black"/>
<path d="M649.194 17.7721L643.635 3.08295H612.745L564.544 122.415H596.49L604.723 99.6114H648.772L649.194 17.7721ZM613.519 75.2695L628.085 35.469L640.961 75.2695H613.519Z" fill="black"/>
<path d="M666.082 62.399V122.414H688.81L666.082 62.399Z" fill="black"/>
<path d="M731.17 94.0855V3.08295H701.124V122.415H785V94.0855H731.17Z" fill="black"/>
</svg>
